<svg xmlns="http://www.w3.org/2000/svg" xmlns:xlink="http://www.w3.org/1999/xlink" width="11" height="13" viewBox="0 0 11 13">
    <defs>
        <path id="a" d="M10.656 12.483V.1H0v12.382h10.656z"/>
    </defs>
    <g fill="none" fill-rule="evenodd">
        <g>
            <mask id="b" fill="#fff">
                <use xlink:href="#a"/>
            </mask>
            <path fill="#FFF" d="M9.946 4.443H.711V3.35c0-.2.16-.364.354-.364H9.59c.196 0 .356.163.356.364v1.094zm-.711 6.217c0 .603-.479 1.093-1.065 1.093H2.486c-.586 0-1.065-.49-1.065-1.093V5.174h7.814v5.486zM4.263 1.196A.36.36 0 0 1 4.617.83h1.421a.36.36 0 0 1 .355.366v1.06h-2.13v-1.06zm5.327 1.06H7.105v-1.06C7.105.592 6.625.1 6.038.1H4.617C4.03.1 3.553.59 3.553 1.196v1.06H1.065C.478 2.256 0 2.746 0 3.349v1.46c0 .2.16.365.355.365h.356v5.486c0 1.004.795 1.823 1.775 1.823H8.17c.98 0 1.776-.819 1.776-1.823V5.174h.355a.361.361 0 0 0 .356-.365v-1.46c0-.603-.48-1.093-1.067-1.093z" mask="url(#b)"/>
        </g>
        <path fill="#FFF" d="M3.323 11c.179 0 .323-.18.323-.4V7.4c0-.22-.144-.4-.323-.4C3.145 7 3 7.18 3 7.4v3.2c0 .22.145.4.323.4M5.323 11c.178 0 .322-.18.322-.4V7.4c0-.22-.144-.4-.322-.4-.18 0-.323.18-.323.4v3.2c0 .22.144.4.323.4M7.322 11c.179 0 .323-.18.323-.4V7.4c0-.22-.144-.4-.323-.4C7.144 7 7 7.18 7 7.4v3.2c0 .22.144.4.322.4"/>
    </g>
</svg>
