<svg xmlns="http://www.w3.org/2000/svg" xmlns:xlink="http://www.w3.org/1999/xlink" width="11" height="11" viewBox="0 0 11 11">
    <defs>
        <path id="a" d="M0 11h11V0H0z"/>
    </defs>
    <g fill="none" fill-rule="evenodd">
        <mask id="b" fill="#fff">
            <use xlink:href="#a"/>
        </mask>
        <path fill="#FFF" d="M10.073 2.701l-.7.7-.892-.892-.892-.893.701-.7a.74.74 0 0 1 1.023 0l.76.761a.726.726 0 0 1 0 1.024zm-6.332 6.34L1.957 7.253l5.126-5.131.893.892.892.893L3.74 9.04zm-.835.835l-2.118.335.334-2.12.329-.33 1.784 1.786-.329.33zm7.673-8.706L9.82.41c-.544-.545-1.492-.545-2.036 0l-.952.954L1.199 7l-.002.001v.002l-.663.664a.353.353 0 0 0-.1.197l-.43 2.721a.358.358 0 0 0 .41.41l2.719-.43a.351.351 0 0 0 .197-.1l6.297-6.304.953-.953c.56-.563.56-1.477 0-2.038z" mask="url(#b)"/>
    </g>
</svg>
